<svg xmlns="http://www.w3.org/2000/svg" viewBox="0 0 42.98 39.75"><defs><style>.cls-1{fill:#a7a9ac;}</style></defs><title>shell-logo</title><path class="cls-1" d="M39.22,21.49a9.07,9.07,0,0,1-.29,2.28L32.4,28.52l-.8,6.4H23.67l-1.17.85a1.72,1.72,0,0,1-2,0l-1.17-.85H11.38l-.8-6.4L4,23.77a9.14,9.14,0,0,1,.51-6L16.11,29.45,4.88,15.58a9.13,9.13,0,0,1,2.81-4.65L17.76,28.32l-8.92-19A9.13,9.13,0,0,1,13.43,6l6.16,21.58L15.09,5.15A9.11,9.11,0,0,1,20.57,4l.92,23.37L22.41,4a9.11,9.11,0,0,1,5.48,1.12l-4.5,22.47L29.55,6a9.13,9.13,0,0,1,4.6,3.24l-8.92,19L35.29,10.93a9.13,9.13,0,0,1,2.81,4.65L26.86,29.45,38.42,17.77a9.14,9.14,0,0,1,.79,3.72m3.76,0A21.49,21.49,0,1,0,.43,25.79L7,30.6l1,8.08H19l.63.46a3.22,3.22,0,0,0,3.79,0l.63-.46h10.9l1-8.08,6.61-4.81a21.48,21.48,0,0,0,.43-4.3"/></svg>